<?xml version="1.0" encoding="UTF-8" standalone="no"?>
<svg width="16px" height="16px" viewBox="0 0 16 16" version="1.1" xmlns="http://www.w3.org/2000/svg" xmlns:xlink="http://www.w3.org/1999/xlink">
    <!-- Generator: Sketch 3.6.1 (26313) - http://www.bohemiancoding.com/sketch -->
    <title>Icons/Calendar</title>
    <desc>Created with Sketch.</desc>
    <defs></defs>
    <g id="Style" stroke="none" stroke-width="1" fill="none" fill-rule="evenodd">
        <g id="Icons/Calendar" fill="#000000">
            <g>
                <path d="M1,2.00748397 L1,2.00748397 L1,14.992516 C1,14.9991952 1.00080068,15 1.00087166,15 L14.9991283,15 C14.9998629,15 15,14.9998617 15,14.992516 L15,2.00748397 C15,2.00080478 14.9991993,2 14.9991283,2 L1.00087166,2 C1.00013711,2 1,2.00013835 1,2.00748397 L1,2.00748397 Z M0,2.00748397 C0,1.45106594 0.444630861,1 1.00087166,1 L14.9991283,1 C15.5518945,1 16,1.44892021 16,2.00748397 L16,14.992516 C16,15.5489341 15.5553691,16 14.9991283,16 L1.00087166,16 C0.448105505,16 0,15.5510798 0,14.992516 L0,2.00748397 L0,2.00748397 Z" id="Rectangle-201"></path>
                <rect id="Rectangle-204" x="1" y="4" width="14" height="1"></rect>
                <path d="M3.5,0 C3.77614237,0 4,0.215752602 4,0.495388985 L4,2.50461102 C4,2.7782068 3.76806641,3 3.5,3 C3.22385763,3 3,2.7842474 3,2.50461102 L3,0.495388985 C3,0.221793203 3.23193359,0 3.5,0 Z" id="Rectangle-202"></path>
                <path d="M12,0.495388985 C12,0.221793203 12.2319336,0 12.5,0 C12.7761424,0 13,0.215752602 13,0.495388985 L13,2.50461102 C13,2.7782068 12.7680664,3 12.5,3 C12.2238576,3 12,2.7842474 12,2.50461102 L12,0.495388985 L12,0.495388985 Z" id="Rectangle-202"></path>
                <path d="M3,12 C3,11.4477153 3.44386482,11 4,11 C4.55228475,11 5,11.4438648 5,12 C5,12.5522847 4.55613518,13 4,13 C3.44771525,13 3,12.5561352 3,12 Z M3,8 C3,7.44771525 3.44386482,7 4,7 C4.55228475,7 5,7.44386482 5,8 C5,8.55228475 4.55613518,9 4,9 C3.44771525,9 3,8.55613518 3,8 Z M11,8 C11,7.44771525 11.4438648,7 12,7 C12.5522847,7 13,7.44386482 13,8 C13,8.55228475 12.5561352,9 12,9 C11.4477153,9 11,8.55613518 11,8 Z M7,8 C7,7.44771525 7.44386482,7 8,7 C8.55228475,7 9,7.44386482 9,8 C9,8.55228475 8.55613518,9 8,9 C7.44771525,9 7,8.55613518 7,8 Z M11,12 C11,11.4477153 11.4438648,11 12,11 C12.5522847,11 13,11.4438648 13,12 C13,12.5522847 12.5561352,13 12,13 C11.4477153,13 11,12.5561352 11,12 Z M7,12 C7,11.4477153 7.44386482,11 8,11 C8.55228475,11 9,11.4438648 9,12 C9,12.5522847 8.55613518,13 8,13 C7.44771525,13 7,12.5561352 7,12 Z" id="Rectangle-226"></path>
            </g>
        </g>
    </g>
</svg>