<?xml version="1.0" encoding="utf-8"?>
<!-- Generator: Adobe Illustrator 16.0.0, SVG Export Plug-In . SVG Version: 6.00 Build 0)  -->
<!DOCTYPE svg PUBLIC "-//W3C//DTD SVG 1.1//EN" "http://www.w3.org/Graphics/SVG/1.1/DTD/svg11.dtd">
<svg version="1.1" id="Layer_1" xmlns="http://www.w3.org/2000/svg" xmlns:xlink="http://www.w3.org/1999/xlink" x="0px" y="0px"
	 width="10px" height="10px" viewBox="0 0 10 10" enable-background="new 0 0 10 10" xml:space="preserve">
<path d="M9.869,1.449L9.87,1.447l0,0C9.951,1.307,10,1.148,10,0.978C10,0.438,9.544,0,8.982,0C8.656,0,8.371,0.149,8.184,0.377l0,0
	L8.18,0.382C8.129,0.446,8.083,0.514,8.049,0.588L3.814,7.252l-1.95-2.287l0,0C1.682,4.703,1.371,4.53,1.018,4.53
	C0.456,4.53,0,4.968,0,5.508c0,0.273,0.118,0.521,0.308,0.699l2.589,3.347l0,0C3.078,9.821,3.392,10,3.75,10
	c0.425,0,0.788-0.25,0.94-0.604l5.108-7.839C9.825,1.522,9.848,1.486,9.869,1.449z"/>
</svg>
