<?xml version="1.0" encoding="UTF-8" standalone="no"?>
<svg width="16px" height="16px" viewBox="0 0 16 16" version="1.1" xmlns="http://www.w3.org/2000/svg" xmlns:xlink="http://www.w3.org/1999/xlink">
    <!-- Generator: Sketch 3.6.1 (26313) - http://www.bohemiancoding.com/sketch -->
    <title>Icons/Graph</title>
    <desc>Created with Sketch.</desc>
    <defs></defs>
    <g id="Style" stroke="none" stroke-width="1" fill="none" fill-rule="evenodd">
        <g id="Icons/Graph" fill="#000000">
            <g transform="translate(0.000000, 1.000000)">
                <path d="M0.470588235,14 L15.5294118,14 C15.7893105,14 16,13.7761424 16,13.5 C16,13.2238576 15.7893105,13 15.5294118,13 L0.470588235,13 C0.210689529,13 0,13.2238576 0,13.5 C0,13.7761424 0.210689529,14 0.470588235,14 L0.470588235,14 Z" id="Line"></path>
                <path d="M2,13 L1,13 L5,13 L4,13 L4,6.99703014 C4,7.00475567 2.0093689,7 2.0093689,7 M1,6.99703014 C1,6.4463856 1.44335318,6 2.0093689,6 L3.9906311,6 C4.54809015,6 5,6.45303631 5,6.99703014 L5,14 L1,14 L1,6.99703014 L1,6.99703014 L1,6.99703014 Z" id="Rectangle-221"></path>
                <path d="M7,13 L6,13 L10,13 L9,13 L9,3.9955775 C9,4.00067661 7.0093689,4 7.0093689,4 C6.99683583,4 7,13 7,13 Z M6,3.9955775 C6,3.44573523 6.44335318,3 7.0093689,3 L8.9906311,3 C9.54809015,3 10,3.44483697 10,3.9955775 L10,14 L6,14 L6,3.9955775 L6,3.9955775 Z" id="Rectangle-221"></path>
                <path d="M12,13 L11,13 L15,13 L14,13 L14,1.00684547 C14,1.00320984 12.0093689,1 12.0093689,1 C11.9993489,1 12,13 12,13 Z M11,1.00684547 C11,0.450780073 11.4433532,0 12.0093689,0 L13.9906311,0 C14.5480902,0 15,0.449948758 15,1.00684547 L15,14 L11,14 L11,1.00684547 L11,1.00684547 Z" id="Rectangle-221"></path>
            </g>
        </g>
    </g>
</svg>