<?xml version="1.0" encoding="utf-8"?>
<!-- Generator: Adobe Illustrator 16.0.0, SVG Export Plug-In . SVG Version: 6.00 Build 0)  -->
<!DOCTYPE svg PUBLIC "-//W3C//DTD SVG 1.1//EN" "http://www.w3.org/Graphics/SVG/1.1/DTD/svg11.dtd">
<svg version="1.1" id="Layer_1" xmlns="http://www.w3.org/2000/svg" xmlns:xlink="http://www.w3.org/1999/xlink" x="0px" y="0px"
	 width="32px" height="31.999px" viewBox="0 0 32 31.999" enable-background="new 0 0 32 31.999" xml:space="preserve">
<g>
	<path fill-rule="evenodd" clip-rule="evenodd" d="M27.96,28.284C30.47,25.393,32,21.629,32,17.499C32,8.388,24.612,0,15.5,0
		c-1.563,0-3.068,0.231-4.5,0.637V2v0.721v1.632C4.714,5.728,0,11.301,0,18v2h0.159C1.132,26.781,6.949,31.999,14,31.999
		c3.838,0,7.291-1.565,9.817-4.069l1.713,0.824l1.221,0.791c0.408-0.381,0.795-0.782,1.163-1.201l0.09-0.031L27.96,28.284z
		 M11,6.396V18H2C2,12.41,5.827,7.729,11,6.396 M14,29.999c-5.944,0-10.866-4.326-11.82-9.999h9.302l10.611,6.821
		C19.959,28.785,17.129,29.999,14,29.999 M23.432,25.373L13,18.667V18V6.051V4.05V2.226C13.812,2.082,14.646,2,15.5,2
		C23.508,2,30,9.491,30,17.499c0,3.734-1.425,7.123-3.744,9.69l-1.136-0.73L23.432,25.373z"/>
</g>
</svg>
