<?xml version="1.0" encoding="utf-8"?>
<!-- Generator: Adobe Illustrator 16.0.0, SVG Export Plug-In . SVG Version: 6.00 Build 0)  -->
<!DOCTYPE svg PUBLIC "-//W3C//DTD SVG 1.1//EN" "http://www.w3.org/Graphics/SVG/1.1/DTD/svg11.dtd">
<svg version="1.1" id="Layer_1" xmlns="http://www.w3.org/2000/svg" xmlns:xlink="http://www.w3.org/1999/xlink" x="0px" y="0px"
	 width="32px" height="32px" viewBox="0 0 32 32" enable-background="new 0 0 32 32" xml:space="preserve">
<g>
	<path fill-rule="evenodd" clip-rule="evenodd" d="M16,0C7.164,0,0,7.164,0,16c0,8.837,7.164,16,16,16c8.837,0,16-7.163,16-16
		C32,7.164,24.837,0,16,0 M20,2.588c4.513,1.344,8.062,4.902,9.408,9.413h-6.485c-0.703-1.21-1.711-2.22-2.923-2.922V2.588z M22,16
		c0,3.314-2.687,6-6,6c-3.314,0-6-2.686-6-6c0-3.312,2.686-5.999,6-5.999C19.313,10.001,22,12.688,22,16 M14,2.159
		C14.655,2.066,15.319,2,16,2c0.681,0,1.345,0.066,2,0.159v6.103C17.359,8.097,16.691,8,16,8c-0.692,0-1.36,0.097-2,0.262V2.159z
		 M12,2.588v6.491c-1.211,0.702-2.219,1.712-2.922,2.922H2.592C3.938,7.49,7.488,3.932,12,2.588 M2,16c0-0.68,0.058-1.346,0.152-2
		h6.109C8.096,14.64,8,15.308,8,16c0,0.691,0.096,1.36,0.261,2H2.152C2.058,17.346,2,16.68,2,16 M12,29.412
		c-4.512-1.344-8.061-4.901-9.407-9.411h6.486C9.782,21.21,10.79,22.22,12,22.921V29.412z M18,29.841C17.345,29.935,16.681,30,16,30
		c-0.681,0-1.345-0.065-2-0.159v-6.103C14.64,23.903,15.308,24,16,24c0.691,0,1.359-0.098,2-0.262V29.841z M20,29.412v-6.491
		c1.211-0.701,2.218-1.711,2.921-2.92h6.486C28.062,24.511,24.512,28.068,20,29.412 M23.739,18C23.903,17.36,24,16.691,24,16
		c0-0.692-0.097-1.36-0.261-2h6.108C29.941,14.654,30,15.32,30,16s-0.059,1.346-0.152,2H23.739z"/>
</g>
</svg>
