<?xml version="1.0" encoding="utf-8"?>
<!-- Generator: Adobe Illustrator 16.0.0, SVG Export Plug-In . SVG Version: 6.00 Build 0)  -->
<!DOCTYPE svg PUBLIC "-//W3C//DTD SVG 1.1//EN" "http://www.w3.org/Graphics/SVG/1.1/DTD/svg11.dtd">
<svg version="1.1" id="Layer_1" xmlns="http://www.w3.org/2000/svg" xmlns:xlink="http://www.w3.org/1999/xlink" x="0px" y="0px"
	 width="32px" height="32px" viewBox="0 0 32 32" enable-background="new 0 0 32 32" xml:space="preserve">
<g>
	<path fill-rule="evenodd" clip-rule="evenodd" d="M21,20.001H7c-0.552,0-1,0.447-1,1S6.448,22,7,22h14c0.552,0,1-0.446,1-0.999
		S21.552,20.001,21,20.001 M21,24H7c-0.552,0-1,0.448-1,1.001c0,0.552,0.448,1,1,1h14c0.552,0,1-0.448,1-1
		C22,24.448,21.552,24,21,24 M32,11V4h-4V2.001C28,0.896,27.104,0,26,0H2C0.895,0,0,0.896,0,2.001V30c0,1.104,0.895,2,2,2h24
		c0.738,0,1.375-0.404,1.722-0.999H28V30v-3.999h2V22h-2v-3.999h2v-4h-2V11H32z M28,6.001h2v3h-2V6.001z M26,4v7v3.001v4V22v4.001
		V29c0,0.553-0.448,1-1,1H3c-0.552,0-1-0.447-1-1V3.001c0-0.553,0.448-1,1-1h22c0.552,0,1,0.447,1,1V4z M20,6.001H8
		c-1.105,0-2,0.895-2,2v6C6,15.105,6.895,16,8,16h12c1.104,0,2-0.895,2-1.999v-6C22,6.896,21.104,6.001,20,6.001 M20,13.001
		c0,0.552-0.448,1-1,1H9c-0.552,0-1-0.448-1-1v-4c0-0.553,0.448-1,1-1h10c0.552,0,1,0.447,1,1V13.001z"/>
</g>
</svg>
