<?xml version="1.0" encoding="UTF-8" standalone="no"?>
<svg width="16px" height="16px" viewBox="0 0 16 16" version="1.1" xmlns="http://www.w3.org/2000/svg" xmlns:xlink="http://www.w3.org/1999/xlink">
    <!-- Generator: Sketch 3.6.1 (26313) - http://www.bohemiancoding.com/sketch -->
    <title>Icons/Dashboard</title>
    <desc>Created with Sketch.</desc>
    <defs></defs>
    <g id="Style" stroke="none" stroke-width="1" fill="none" fill-rule="evenodd">
        <g id="Icons/Dashboard" fill="#000000">
            <g>
                <path d="M10.5,11 C10.5,10.7874689 10.4733644,10.5780058 10.4212098,10.3753708 L9.93699126,10.5 L9.93699126,11 L15,11 L15,10 L9.93699126,10 L10.4212098,10.3753708 C10.1390957,9.27928074 9.14738175,8.5 8,8.5 C6.85261825,8.5 5.86090432,9.27928074 5.57879024,10.3753708 L6.06300874,10 L1,10 L1,11 L6.06300874,11 L6.06300874,10.5 L5.57879024,10.3753708 C5.52663558,10.5780058 5.5,10.7874689 5.5,11 L6.5,11 C6.5,10.8717288 6.5159871,10.7460057 6.54722724,10.6246292 L6.70799569,10 L6.06300874,10 L1,10 L1,11 L6.06300874,11 L6.45061348,11 L6.54722724,10.6246292 C6.71627714,9.96782432 7.31163114,9.5 8,9.5 C8.68836886,9.5 9.28372286,9.96782432 9.45277276,10.6246292 L9.54938652,11 L9.93699126,11 L15,11 L15,10 L9.93699126,10 L9.29200431,10 L9.45277276,10.6246292 C9.4840129,10.7460057 9.5,10.8717288 9.5,11 L10.5,11 L10.5,11 Z" id="Line"></path>
                <path d="M6.5,13 L9.5,13 C9.77614237,13 10,12.7761424 10,12.5 C10,12.2238576 9.77614237,12 9.5,12 L6.5,12 C6.22385763,12 6,12.2238576 6,12.5 C6,12.7761424 6.22385763,13 6.5,13 L6.5,13 Z" id="Line"></path>
                <path d="M8.3904344,9.31234752 L12.3904344,4.31234752 C12.5629392,4.09671656 12.5279785,3.78207037 12.3123475,3.6095656 C12.0967166,3.43706082 11.7820704,3.47202151 11.6095656,3.68765248 L7.6095656,8.68765248 C7.43706082,8.90328344 7.47202151,9.21792963 7.68765248,9.3904344 C7.90328344,9.56293918 8.21792963,9.52797849 8.3904344,9.31234752 L8.3904344,9.31234752 Z" id="Line"></path>
                <circle id="Oval-148" cx="4.5" cy="4.5" r="1"></circle>
                <circle id="Oval-148" cx="13" cy="8" r="1"></circle>
                <circle id="Oval-148" cx="3" cy="8" r="1"></circle>
                <circle id="Oval-148" cx="8" cy="3" r="1"></circle>
                <path d="M8,15 L8,15 C11.8659932,15 15,11.8659932 15,8 C15,4.13400675 11.8659932,1 8,1 C4.13400675,1 1,4.13400675 1,8 C1,11.8659932 4.13400675,15 8,15 L8,15 Z M8,16 L8,16 C3.581722,16 0,12.418278 0,8 C0,3.581722 3.581722,0 8,0 C12.418278,0 16,3.581722 16,8 C16,12.418278 12.418278,16 8,16 L8,16 Z" id="Oval-140"></path>
            </g>
        </g>
    </g>
</svg>