<?xml version="1.0" encoding="utf-8"?>
<!-- Generator: Adobe Illustrator 16.0.0, SVG Export Plug-In . SVG Version: 6.00 Build 0)  -->
<!DOCTYPE svg PUBLIC "-//W3C//DTD SVG 1.1//EN" "http://www.w3.org/Graphics/SVG/1.1/DTD/svg11.dtd">
<svg version="1.1" id="Layer_1" xmlns="http://www.w3.org/2000/svg" xmlns:xlink="http://www.w3.org/1999/xlink" x="0px" y="0px"
	 width="52px" height="63.998px" viewBox="0 0 52 63.998" enable-background="new 0 0 52 63.998" xml:space="preserve">
<g>
	<path fill-rule="evenodd" clip-rule="evenodd" d="M44,23.998V18c0-9.941-8.059-18-18-18C16.059,0,8,8.059,8,18v5.998
		c-4.419,0-8,3.582-8,8v24c0,4.418,3.581,8,8,8h36c4.418,0,8-3.582,8-8v-24C52,27.58,48.418,23.998,44,23.998 M12,18
		c0-7.732,6.268-14,14-14c7.732,0,14,6.268,14,14v5.998H12V18z M48,55.998c0,2.207-1.791,3.998-4,3.998H8c-2.209,0-4-1.791-4-3.998
		v-24c0-2.209,1.791-4,4-4h36c2.209,0,4,1.791,4,4V55.998z M26,35.998c-1.106,0-2,0.895-2,2v12c0,1.104,0.894,2,2,2
		c1.104,0,2-0.896,2-2v-12C28,36.893,27.104,35.998,26,35.998"/>
</g>
</svg>
