<?xml version="1.0" encoding="UTF-8" standalone="no"?>
<svg width="16px" height="16px" viewBox="0 0 16 16" version="1.1" xmlns="http://www.w3.org/2000/svg" xmlns:xlink="http://www.w3.org/1999/xlink">
    <!-- Generator: Sketch 3.6.1 (26313) - http://www.bohemiancoding.com/sketch -->
    <title>Icons/News</title>
    <desc>Created with Sketch.</desc>
    <defs></defs>
    <g id="Style" stroke="none" stroke-width="1" fill="none" fill-rule="evenodd">
        <g id="Icons/News" fill="#000000">
            <g transform="translate(1.000000, 0.000000)">
                <path d="M3.00247329,15 L3.00247329,15 L12.9975267,15 C12.9957712,15 13,14.995798 13,14.9991283 L13,1.00087166 C13,0.999013025 13.0009909,1 12.9975267,1 L3.00247329,1 C3.00346106,1 3,1.00342721 3,0.997413724 L3,4.91174316 L3,15.0009958 C3,14.9994733 3.00052837,15 3.00247329,15 L3.00247329,15 Z M3.00247329,16 C2.44882258,16 2,15.55234 2,15.0009958 L2,4.91174316 L2,0.997413724 C2,0.446557335 2.45576096,0 3.00247329,0 L12.9975267,0 C13.5511774,0 14,0.444630861 14,1.00087166 L14,14.9991283 C14,15.5518945 13.544239,16 12.9975267,16 L3.00247329,16 L3.00247329,16 Z" id="Rectangle-218"></path>
                <path d="M10,2.99895656 L10,2.99895656 L10,4.00104344 C10,4.00275792 9.9972333,4 9.99895656,4 L11.0010434,4 C11.0027579,4 11,4.0027667 11,4.00104344 L11,2.99895656 C11,2.99724208 11.0027667,3 11.0010434,3 L9.99895656,3 C9.99724208,3 10,2.9972333 10,2.99895656 L10,2.99895656 Z M9,2.99895656 C9,2.44724809 9.44266033,2 9.99895656,2 L11.0010434,2 C11.5527519,2 12,2.44266033 12,2.99895656 L12,4.00104344 C12,4.55275191 11.5573397,5 11.0010434,5 L9.99895656,5 C9.44724809,5 9,4.55733967 9,4.00104344 L9,2.99895656 L9,2.99895656 Z" id="Rectangle-219"></path>
                <path d="M1,5.00247329 L1,5.00247329 L1,14.5044548 C1,14.7719692 1.22766108,15 1.5,15 L3,15 L2,16 L2,4 L3,5 L0.998956561,5 C0.998033033,5 1,4.99801983 1,5.00247329 L1,5.00247329 Z M0,5.00247329 C0,4.44882258 0.442660332,4 0.998956561,4 L3,4 L3,16 L1.5,16 C0.671572875,16 0,15.3204455 0,14.5044548 L0,5.00247329 L0,5.00247329 Z" id="Rectangle-220"></path>
                <path d="M4.5,5 L7.5,5 C7.77614237,5 8,4.77614237 8,4.5 C8,4.22385763 7.77614237,4 7.5,4 L4.5,4 C4.22385763,4 4,4.22385763 4,4.5 C4,4.77614237 4.22385763,5 4.5,5 L4.5,5 Z M4.5,7 L11.5,7 C11.7761424,7 12,6.77614237 12,6.5 C12,6.22385763 11.7761424,6 11.5,6 L4.5,6 C4.22385763,6 4,6.22385763 4,6.5 C4,6.77614237 4.22385763,7 4.5,7 L4.5,7 Z M4.5,9 L11.5,9 C11.7761424,9 12,8.77614237 12,8.5 C12,8.22385763 11.7761424,8 11.5,8 L4.5,8 C4.22385763,8 4,8.22385763 4,8.5 C4,8.77614237 4.22385763,9 4.5,9 L4.5,9 Z M4.5,11 L7.5,11 C7.77614237,11 8,10.7761424 8,10.5 C8,10.2238576 7.77614237,10 7.5,10 L4.5,10 C4.22385763,10 4,10.2238576 4,10.5 C4,10.7761424 4.22385763,11 4.5,11 L4.5,11 Z" id="Line"></path>
            </g>
        </g>
    </g>
</svg>