<?xml version="1.0" encoding="utf-8"?>
<!-- Generator: Adobe Illustrator 16.0.0, SVG Export Plug-In . SVG Version: 6.00 Build 0)  -->
<!DOCTYPE svg PUBLIC "-//W3C//DTD SVG 1.1//EN" "http://www.w3.org/Graphics/SVG/1.1/DTD/svg11.dtd">
<svg version="1.1" id="Layer_1" xmlns="http://www.w3.org/2000/svg" xmlns:xlink="http://www.w3.org/1999/xlink" x="0px" y="0px"
	 width="256.065px" height="143.242px" viewBox="0 0 256.065 143.242" enable-background="new 0 0 256.065 143.242"
	 xml:space="preserve">
<path d="M83.038,28.397c0-9.656,0-18.562,0-28.397c22.193,13.607,43.638,26.755,65.836,40.366
	c-22.146,13.582-43.603,26.74-65.815,40.362c0-9.544,0-18.256,0-26.754c-11.431,0-22.589-1.468-33.188,0.342
	c-16.238,2.77-26.372,18.324-24.846,34.805c1.475,15.936,15.35,29.02,32.182,29.115c47.158,0.268,94.319,0.258,141.478,0.006
	c16.836-0.092,30.711-13.09,32.252-29.045c1.59-16.452-8.592-31.458-24.754-35.006c-6.557-1.439-13.57-0.875-20.381-1.044
	c-5.797-0.146-11.601-0.03-18.021-0.03c0-4.474,0-8.417,0-12.362c0-3.957,0-7.915,0-12.634c16.855,1.238,33.383-2.29,49.449,3.246
	c24.771,8.536,40.834,33.052,38.635,58.959c-2.203,25.949-22.066,47.695-47.66,51.994c-3.76,0.633-7.631,0.844-11.45,0.85
	c-45.826,0.057-91.653,0.141-137.479-0.002C30.553,143.082,8.199,125.699,1.548,98.74c-8.476-34.347,17.349-68.889,52.724-70.287
	C63.566,28.084,72.889,28.397,83.038,28.397z"/>
</svg>
