<?xml version="1.0" encoding="UTF-8" standalone="no"?>
<svg width="16px" height="16px" viewBox="0 0 16 16" version="1.1" xmlns="http://www.w3.org/2000/svg" xmlns:xlink="http://www.w3.org/1999/xlink">
    <!-- Generator: Sketch 3.6.1 (26313) - http://www.bohemiancoding.com/sketch -->
    <title>Icons/Spelregels</title>
    <desc>Created with Sketch.</desc>
    <defs></defs>
    <g id="Style" stroke="none" stroke-width="1" fill="none" fill-rule="evenodd">
        <g id="Icons/Spelregels" fill="#000000">
            <g transform="translate(0.000000, 1.000000)">
                <path d="M8.99365815,8.77234229 L8.99365815,8.77234229 L8.94907147,7.97453531 L9.71737901,7.75501887 L14.7666362,6.31237397 C14.8617265,6.2852053 15,6.10250609 15,6.00104344 L15,4.99895656 C15,4.99648233 15.0035169,5 15.0044225,5 L5,5 C2.790861,5 1,6.790861 1,9 C1,11.209139 2.790861,13 5,13 C7.209139,13 9,11.209139 9,9 C9,8.92378903 8.99788006,8.84788669 8.99365815,8.77234229 L8.99365815,8.77234229 Z M9.99210014,8.71654282 C9.99734333,8.81036128 10,8.90487039 10,9 C10,11.7614237 7.76142375,14 5,14 C2.23857625,14 0,11.7614237 0,9 C0,6.23857625 2.23857625,4 5,4 L15.0044225,4 C15.5542648,4 16,4.44266033 16,4.99895656 L16,6.00104344 C16,6.55275191 15.5621186,7.12510896 15.0413573,7.27389792 L9.99210014,8.71654282 L9.99210014,8.71654282 L9.99210014,8.71654282 Z" id="Oval-147"></path>
                <path d="M6,5 L6,5 L6,5 L6,5.5 C6,5.76806641 6.22385763,6 6.5,6 C6.76806641,6 7,5.77614237 7,5.5 L7,5 L6,5 Z M6,4 L6,4 L7,4 L8,4 L8,5 L8,5.5 C8,6.32816753 7.320672,7 6.5,7 C5.67183247,7 5,6.320672 5,5.5 L5,5 L5,4 L6,4 Z" id="Path"></path>
                <path d="M4.85355339,2.14644661 L3.85355339,1.14644661 C3.65829124,0.951184464 3.34170876,0.951184464 3.14644661,1.14644661 C2.95118446,1.34170876 2.95118446,1.65829124 3.14644661,1.85355339 L4.14644661,2.85355339 C4.34170876,3.04881554 4.65829124,3.04881554 4.85355339,2.85355339 C5.04881554,2.65829124 5.04881554,2.34170876 4.85355339,2.14644661 L4.85355339,2.14644661 Z" id="Line"></path>
                <path d="M8.85355339,2.85355339 L9.85355339,1.85355339 C10.0488155,1.65829124 10.0488155,1.34170876 9.85355339,1.14644661 C9.65829124,0.951184464 9.34170876,0.951184464 9.14644661,1.14644661 L8.14644661,2.14644661 C7.95118446,2.34170876 7.95118446,2.65829124 8.14644661,2.85355339 C8.34170876,3.04881554 8.65829124,3.04881554 8.85355339,2.85355339 L8.85355339,2.85355339 Z" id="Line"></path>
                <path d="M6,0.5 L6,2.5 C6,2.77614237 6.22385763,3 6.5,3 C6.77614237,3 7,2.77614237 7,2.5 L7,0.5 C7,0.223857625 6.77614237,0 6.5,0 C6.22385763,0 6,0.223857625 6,0.5 L6,0.5 Z" id="Line"></path>
            </g>
        </g>
    </g>
</svg>